<?xml version="1.0" standalone="no"?>
<!DOCTYPE svg PUBLIC "-//W3C//DTD SVG 20010904//EN"
 "http://www.w3.org/TR/2001/REC-SVG-20010904/DTD/svg10.dtd">
<svg version="1.0" xmlns="http://www.w3.org/2000/svg"
 width="512.000000pt" height="512.000000pt" viewBox="0 0 512.000000 512.000000"
 preserveAspectRatio="xMidYMid meet">

<g transform="translate(0.000000,512.000000) scale(0.100000,-0.100000)"
fill="#000000" stroke="none">
<path d="M930 3467 c-13 -7 -31 -24 -39 -39 -14 -24 -14 -30 1 -61 14 -30 36
-45 155 -104 214 -107 544 -207 800 -244 82 -11 94 -11 116 4 33 21 44 70 23
102 -18 28 -37 34 -246 74 -255 49 -512 137 -680 232 -83 47 -100 51 -130 36z"/>
<path d="M663 3153 c-10 -24 -16 -69 -17 -123 -1 -72 3 -94 25 -140 122 -261
559 -486 1139 -589 266 -47 389 -56 750 -56 361 0 487 10 750 56 569 100 1007
323 1131 574 30 62 34 78 34 150 -1 77 -17 149 -35 160 -5 3 -16 -7 -24 -23
-25 -48 -108 -133 -188 -193 -264 -196 -728 -337 -1278 -390 -161 -16 -619
-16 -780 0 -709 68 -1273 287 -1452 562 -17 27 -33 49 -35 49 -2 0 -11 -17
-20 -37z"/>
<path d="M930 2187 c-13 -7 -31 -24 -39 -39 -14 -24 -14 -30 1 -61 14 -30 36
-45 155 -104 214 -107 544 -207 800 -244 82 -11 94 -11 116 4 33 21 44 70 23
102 -18 28 -37 34 -246 74 -255 49 -512 137 -680 232 -83 47 -100 51 -130 36z"/>
<path d="M663 1873 c-10 -24 -16 -69 -17 -123 -1 -72 3 -94 25 -140 122 -261
559 -486 1139 -589 266 -47 389 -56 750 -56 361 0 487 10 750 56 569 100 1007
323 1131 574 30 62 34 78 34 150 -1 77 -17 149 -35 160 -5 3 -16 -7 -24 -23
-25 -48 -108 -133 -188 -193 -264 -196 -728 -337 -1278 -390 -161 -16 -619
-16 -780 0 -709 68 -1273 287 -1452 562 -17 27 -33 49 -35 49 -2 0 -11 -17
-20 -37z"/>
<path d="M930 907 c-13 -7 -31 -24 -39 -39 -14 -24 -14 -30 1 -61 14 -30 36
-45 155 -104 214 -107 544 -207 800 -244 82 -11 94 -11 116 4 33 21 44 70 23
102 -18 28 -37 34 -246 74 -255 49 -512 137 -680 232 -83 47 -100 51 -130 36z"/>
</g>
</svg>
