<?xml version="1.0" standalone="no"?>
<!DOCTYPE svg PUBLIC "-//W3C//DTD SVG 20010904//EN"
 "http://www.w3.org/TR/2001/REC-SVG-20010904/DTD/svg10.dtd">
<svg version="1.0" xmlns="http://www.w3.org/2000/svg"
 width="225.000000pt" height="225.000000pt" viewBox="0 0 225.000000 225.000000"
 preserveAspectRatio="xMidYMid meet">

<g transform="translate(0.000000,225.000000) scale(0.100000,-0.100000)"
fill="#000000" stroke="none">
<path d="M0 1125 l0 -1125 1125 0 1125 0 0 1125 0 1125 -1125 0 -1125 0 0
-1125z m1540 920 c23 -28 -9 -72 -45 -59 -36 14 -24 74 15 74 10 0 23 -7 30
-15z m1 -111 c17 -21 0 -49 -31 -49 -31 0 -48 28 -31 49 8 9 21 16 31 16 10 0
23 -7 31 -16z m-213 -132 c-2 -23 -8 -27 -33 -27 -24 0 -31 5 -33 24 -5 32 23
54 50 40 13 -7 18 -19 16 -37z m112 10 c-1 -44 -51 -57 -74 -19 -9 15 -7 22
12 37 27 22 62 12 62 -18z m95 22 c19 -20 16 -43 -7 -58 -21 -13 -51 2 -56 26
-3 16 23 48 38 48 5 0 16 -7 25 -16z m122 -20 c8 -20 -15 -44 -43 -44 -32 0
-45 47 -19 66 20 15 52 3 62 -22z m101 -12 c-2 -23 -8 -27 -33 -27 -24 0 -31
5 -33 24 -5 32 23 54 50 40 13 -7 18 -19 16 -37z m-223 -78 c19 -20 16 -43 -7
-58 -21 -13 -51 2 -56 26 -3 16 23 48 38 48 5 0 16 -7 25 -16z m215 2 c6 -8
10 -25 8 -38 -2 -18 -9 -23 -33 -23 -24 0 -31 5 -33 23 -4 25 13 52 33 52 7 0
18 -7 25 -14z m-210 -111 c26 -32 -13 -81 -47 -59 -35 22 -23 74 17 74 10 0
23 -7 30 -15z m104 -1 c9 -8 16 -19 16 -24 0 -13 -30 -40 -44 -40 -17 0 -36
21 -36 40 0 19 19 40 36 40 7 0 20 -7 28 -16z m104 4 c17 -17 15 -43 -4 -59
-31 -26 -70 25 -44 56 15 18 32 19 48 3z m116 -10 c13 -21 -2 -51 -26 -56 -16
-3 -48 23 -48 38 0 15 32 41 48 38 8 -2 20 -11 26 -20z m110 0 c23 -38 -36
-77 -64 -43 -10 12 -10 21 -1 41 13 29 47 30 65 2z m-219 -122 c0 -36 -26 -56
-49 -37 -19 16 -21 57 -3 65 30 12 52 1 52 -28z m-1123 -121 l3 -116 130 115
130 115 59 1 c33 0 57 -2 55 -3 -5 -5 -221 -197 -233 -208 -6 -5 0 -20 16 -36
14 -16 69 -83 122 -150 l96 -123 -57 0 -58 0 -90 116 c-49 64 -93 121 -97 127
-4 6 -20 -1 -41 -19 l-36 -29 0 -97 -1 -98 -45 0 -45 0 0 260 0 260 45 0 44 0
3 -115z m613 -83 c45 -106 84 -194 86 -197 3 -2 42 86 88 195 l84 200 58 0 59
0 0 -260 0 -260 -45 0 -45 0 -2 175 -3 176 -76 -173 -75 -173 -43 0 -42 0 -75
169 c-41 93 -75 171 -77 172 -1 1 -1 -76 1 -172 l3 -174 -50 0 -51 0 0 260 0
261 61 -3 62 -3 82 -193z m513 99 c5 -32 -23 -54 -49 -40 -19 10 -26 49 -12
63 4 4 19 6 33 4 18 -2 26 -10 28 -27z m-1128 -621 c0 -181 7 -217 49 -254 31
-28 127 -34 174 -11 59 28 67 58 67 259 l0 176 350 0 350 0 0 -35 0 -35 -60 0
-60 0 0 -230 0 -230 -50 0 -50 0 0 230 0 230 -70 0 -70 0 0 -230 0 -230 -50 0
-50 0 0 230 0 231 -72 -3 -73 -3 -5 -165 c-5 -173 -8 -186 -57 -232 -44 -42
-94 -58 -178 -58 -115 0 -179 34 -216 115 -16 34 -19 67 -19 228 l0 187 45 0
45 0 0 -170z"/>
</g>
</svg>
